<?xml version="1.0" encoding="UTF-8" standalone="no"?>
<!DOCTYPE svg PUBLIC "-//W3C//DTD SVG 1.1//EN"
 "http://www.w3.org/Graphics/SVG/1.1/DTD/svg11.dtd">
<!-- Generated by graphviz version 12.2.1 (20241206.2353)
 -->
<!-- Pages: 1 -->
<svg width="737pt" height="364pt"
 viewBox="0.00 0.00 737.25 364.00" xmlns="http://www.w3.org/2000/svg" xmlns:xlink="http://www.w3.org/1999/xlink">
<g id="graph0" class="graph" transform="scale(1 1) rotate(0) translate(4 360)">
<polygon fill="white" stroke="none" points="-4,4 -4,-360 733.25,-360 733.25,4 -4,4"/>
<!-- GITHUB -->
<g id="node1" class="node">
<title>GITHUB</title>
<path fill="#e6f0ff" stroke="black" d="M135.25,-356C135.25,-356 12,-356 12,-356 6,-356 0,-350 0,-344 0,-344 0,-332 0,-332 0,-326 6,-320 12,-320 12,-320 135.25,-320 135.25,-320 141.25,-320 147.25,-326 147.25,-332 147.25,-332 147.25,-344 147.25,-344 147.25,-350 141.25,-356 135.25,-356"/>
<text text-anchor="middle" x="73.62" y="-332.2" font-family="Helvetica,sans-Serif" font-size="14.00">Initialize GitHub Repo</text>
</g>
<!-- TF -->
<g id="node6" class="node">
<title>TF</title>
<path fill="#ffe0cc" stroke="black" d="M398.25,-356C398.25,-356 196.25,-356 196.25,-356 190.25,-356 184.25,-350 184.25,-344 184.25,-344 184.25,-332 184.25,-332 184.25,-326 190.25,-320 196.25,-320 196.25,-320 398.25,-320 398.25,-320 404.25,-320 410.25,-326 410.25,-332 410.25,-332 410.25,-344 410.25,-344 410.25,-350 404.25,-356 398.25,-356"/>
<text text-anchor="middle" x="297.25" y="-332.2" font-family="Helvetica,sans-Serif" font-size="14.00">Provision Infrastructure (Terraform)</text>
</g>
<!-- GITHUB&#45;&gt;TF -->
<g id="edge1" class="edge">
<title>GITHUB&#45;&gt;TF</title>
<path fill="none" stroke="black" d="M147.5,-338C155.66,-338 164.13,-338 172.7,-338"/>
<polygon fill="black" stroke="black" points="172.5,-341.5 182.5,-338 172.5,-334.5 172.5,-341.5"/>
</g>
<!-- NF -->
<g id="node2" class="node">
<title>NF</title>
<path fill="#e6f0ff" stroke="black" d="M682.38,-324C682.38,-324 558.38,-324 558.38,-324 552.38,-324 546.38,-318 546.38,-312 546.38,-312 546.38,-300 546.38,-300 546.38,-294 552.38,-288 558.38,-288 558.38,-288 682.38,-288 682.38,-288 688.38,-288 694.38,-294 694.38,-300 694.38,-300 694.38,-312 694.38,-312 694.38,-318 688.38,-324 682.38,-324"/>
<text text-anchor="middle" x="620.38" y="-300.2" font-family="Helvetica,sans-Serif" font-size="14.00">Run Nextflow Pipeline</text>
</g>
<!-- DADA2 -->
<g id="node3" class="node">
<title>DADA2</title>
<path fill="#e6f0ff" stroke="black" d="M693.62,-252C693.62,-252 547.12,-252 547.12,-252 541.12,-252 535.12,-246 535.12,-240 535.12,-240 535.12,-228 535.12,-228 535.12,-222 541.12,-216 547.12,-216 547.12,-216 693.62,-216 693.62,-216 699.62,-216 705.62,-222 705.62,-228 705.62,-228 705.62,-240 705.62,-240 705.62,-246 699.62,-252 693.62,-252"/>
<text text-anchor="middle" x="620.38" y="-228.2" font-family="Helvetica,sans-Serif" font-size="14.00">Nextflow DADA2 Analysis</text>
</g>
<!-- NF&#45;&gt;DADA2 -->
<g id="edge3" class="edge">
<title>NF&#45;&gt;DADA2</title>
<path fill="none" stroke="black" d="M620.38,-287.53C620.38,-279.55 620.38,-271.56 620.38,-263.57"/>
<polygon fill="black" stroke="black" points="623.88,-263.79 620.38,-253.79 616.88,-263.79 623.88,-263.79"/>
</g>
<!-- EXPORT -->
<g id="node4" class="node">
<title>EXPORT</title>
<path fill="#e6f0ff" stroke="black" d="M679,-180C679,-180 561.75,-180 561.75,-180 555.75,-180 549.75,-174 549.75,-168 549.75,-168 549.75,-156 549.75,-156 549.75,-150 555.75,-144 561.75,-144 561.75,-144 679,-144 679,-144 685,-144 691,-150 691,-156 691,-156 691,-168 691,-168 691,-174 685,-180 679,-180"/>
<text text-anchor="middle" x="620.38" y="-156.2" font-family="Helvetica,sans-Serif" font-size="14.00">Export Feature Table</text>
</g>
<!-- DADA2&#45;&gt;EXPORT -->
<g id="edge5" class="edge">
<title>DADA2&#45;&gt;EXPORT</title>
<path fill="none" stroke="black" d="M620.38,-215.53C620.38,-207.55 620.38,-199.56 620.38,-191.57"/>
<polygon fill="black" stroke="black" points="623.88,-191.79 620.38,-181.79 616.88,-191.79 623.88,-191.79"/>
</g>
<!-- ML -->
<g id="node5" class="node">
<title>ML</title>
<path fill="#e6f0ff" stroke="black" d="M706,-108C706,-108 534.75,-108 534.75,-108 528.75,-108 522.75,-102 522.75,-96 522.75,-96 522.75,-84 522.75,-84 522.75,-78 528.75,-72 534.75,-72 534.75,-72 706,-72 706,-72 712,-72 718,-78 718,-84 718,-84 718,-96 718,-96 718,-102 712,-108 706,-108"/>
<text text-anchor="middle" x="620.38" y="-84.2" font-family="Helvetica,sans-Serif" font-size="14.00">Train GVHD Prediction Model</text>
</g>
<!-- EXPORT&#45;&gt;ML -->
<g id="edge6" class="edge">
<title>EXPORT&#45;&gt;ML</title>
<path fill="none" stroke="black" d="M620.38,-143.53C620.38,-135.55 620.38,-127.56 620.38,-119.57"/>
<polygon fill="black" stroke="black" points="623.88,-119.79 620.38,-109.79 616.88,-119.79 623.88,-119.79"/>
</g>
<!-- COST -->
<g id="node7" class="node">
<title>COST</title>
<path fill="#ffe0cc" stroke="black" d="M717.25,-36C717.25,-36 523.5,-36 523.5,-36 517.5,-36 511.5,-30 511.5,-24 511.5,-24 511.5,-12 511.5,-12 511.5,-6 517.5,0 523.5,0 523.5,0 717.25,0 717.25,0 723.25,0 729.25,-6 729.25,-12 729.25,-12 729.25,-24 729.25,-24 729.25,-30 723.25,-36 717.25,-36"/>
<text text-anchor="middle" x="620.38" y="-12.2" font-family="Helvetica,sans-Serif" font-size="14.00">Download Results + Destroy Infra</text>
</g>
<!-- ML&#45;&gt;COST -->
<g id="edge7" class="edge">
<title>ML&#45;&gt;COST</title>
<path fill="none" stroke="gray" stroke-dasharray="5,2" d="M620.38,-71.53C620.38,-63.55 620.38,-55.56 620.38,-47.57"/>
<polygon fill="gray" stroke="gray" points="623.88,-47.79 620.38,-37.79 616.88,-47.79 623.88,-47.79"/>
</g>
<!-- TF&#45;&gt;NF -->
<g id="edge2" class="edge">
<title>TF&#45;&gt;NF</title>
<path fill="none" stroke="black" d="M410.56,-326.81C451.55,-322.72 497.17,-318.18 535.28,-314.38"/>
<polygon fill="black" stroke="black" points="535.23,-317.9 544.83,-313.43 534.53,-310.94 535.23,-317.9"/>
</g>
<!-- DATA -->
<g id="node8" class="node">
<title>DATA</title>
<path fill="#dddddd" stroke="black" d="M360,-302C360,-302 234.5,-302 234.5,-302 228.5,-302 222.5,-296 222.5,-290 222.5,-290 222.5,-278 222.5,-278 222.5,-272 228.5,-266 234.5,-266 234.5,-266 360,-266 360,-266 366,-266 372,-272 372,-278 372,-278 372,-290 372,-290 372,-296 366,-302 360,-302"/>
<text text-anchor="middle" x="297.25" y="-278.2" font-family="Helvetica,sans-Serif" font-size="14.00">Public 16S rRNA Data</text>
</g>
<!-- DATA&#45;&gt;NF -->
<g id="edge4" class="edge">
<title>DATA&#45;&gt;NF</title>
<path fill="none" stroke="gray" stroke-dasharray="5,2" d="M372.44,-288.55C408.91,-290.84 453.52,-293.71 493.5,-296.5 506.82,-297.43 520.93,-298.45 534.71,-299.48"/>
<polygon fill="gray" stroke="gray" points="534.43,-302.97 544.66,-300.22 534.95,-295.99 534.43,-302.97"/>
<text text-anchor="middle" x="460.88" y="-299.7" font-family="Times,serif" font-size="14.00">public input</text>
</g>
</g>
</svg>
